<?xml version="1.0" encoding="UTF-8" standalone="no"?>
<!-- Created with Inkscape (http://www.inkscape.org/) -->

<svg
   version="1.1"
   id="svg1"
   width="793.03314"
   height="156.03951"
   viewBox="0 0 793.03315 156.03951"
   sodipodi:docname="Logo Nova COMPLETA.svg"
   inkscape:version="1.4 (86a8ad7, 2024-10-11)"
   xmlns:inkscape="http://www.inkscape.org/namespaces/inkscape"
   xmlns:sodipodi="http://sodipodi.sourceforge.net/DTD/sodipodi-0.dtd"
   xmlns:xlink="http://www.w3.org/1999/xlink"
   xmlns="http://www.w3.org/2000/svg"
   xmlns:svg="http://www.w3.org/2000/svg">
  <defs
     id="defs1">
    <rect
       x="89.710716"
       y="3.0203707"
       width="60"
       height="15"
       id="rect38" />
    <rect
       x="242.5"
       y="51.547512"
       width="252.21072"
       height="101.47285"
       id="rect37" />
    <inkscape:perspective
       sodipodi:type="inkscape:persp3d"
       inkscape:vp_x="0 : 78.019755 : 1"
       inkscape:vp_y="0 : 1000.0001 : 0"
       inkscape:vp_z="231.4282 : 78.019755 : 1"
       inkscape:persp3d-origin="115.7141 : 52.01317 : 1"
       id="perspective35" />
    <inkscape:path-effect
       effect="powerclip"
       message=""
       id="path-effect29"
       is_visible="true"
       lpeversion="1"
       inverse="true"
       flatten="false"
       hide_clip="false" />
    <rect
       x="79.288429"
       y="228.43768"
       width="182.52306"
       height="65"
       id="rect5" />
    <rect
       x="94.288429"
       y="38.437687"
       width="61.214634"
       height="20.712557"
       id="rect4" />
    <rect
       x="94.288429"
       y="33.437687"
       width="85"
       height="24.999998"
       id="rect3" />
    <rect
       x="159.58263"
       y="89.481972"
       width="53.034225"
       height="20.986078"
       id="rect1" />
    <rect
       x="150.94356"
       y="91.981972"
       width="41.344868"
       height="19.455711"
       id="rect7" />
    <inkscape:path-effect
       center_point="64.400886,90.972297"
       end_point="107.56597,90.962832"
       start_point="21.235802,90.981762"
       effect="mirror_symmetry"
       id="path-effect24"
       is_visible="true"
       lpeversion="1.2"
       lpesatellites=""
       mode="free"
       discard_orig_path="false"
       fuse_paths="false"
       oposite_fuse="false"
       split_items="false"
       split_open="false"
       link_styles="false" />
    <inkscape:path-effect
       effect="powerclip"
       message=""
       id="path-effect16"
       is_visible="true"
       lpeversion="1"
       inverse="true"
       flatten="false"
       hide_clip="false" />
    <inkscape:path-effect
       effect="powerclip"
       message=""
       id="path-effect15"
       is_visible="true"
       lpeversion="1"
       inverse="true"
       flatten="false"
       hide_clip="false" />
    <inkscape:path-effect
       effect="powerclip"
       message=""
       id="path-effect14"
       is_visible="true"
       lpeversion="1"
       inverse="true"
       flatten="false"
       hide_clip="false" />
    <inkscape:path-effect
       effect="powerclip"
       message=""
       id="path-effect6"
       is_visible="true"
       lpeversion="1"
       inverse="true"
       flatten="false"
       hide_clip="false" />
    <clipPath
       clipPathUnits="userSpaceOnUse"
       id="clipPath6">
      <ellipse
         style="display:none;fill:#ffffff;fill-opacity:1;stroke-width:4.78454"
         id="ellipse6"
         cx="16.781862"
         cy="88.736145"
         rx="4.0991712"
         ry="3.9359045" />
      <path
         id="lpe_path-effect6"
         style="display:inline;fill:#ffffff;fill-opacity:1;stroke-width:4.78454"
         class="powerclip"
         d="M 3.4951878,75.779522 H 30.068537 V 101.69277 H 3.4951878 Z M 21.033485,88.736145 a 4.2516227,4.082284 0 0 0 -4.251623,-4.082284 4.2516227,4.082284 0 0 0 -4.251622,4.082284 4.2516227,4.082284 0 0 0 4.251622,4.082284 4.2516227,4.082284 0 0 0 4.251623,-4.082284 z" />
    </clipPath>
    <clipPath
       clipPathUnits="userSpaceOnUse"
       id="clipPath12">
      <ellipse
         style="display:none;fill:#ffffff;fill-opacity:1;stroke-width:4.96249"
         id="ellipse12"
         ry="4.082284"
         rx="4.2516227"
         cy="89"
         cx="16.713326"
         d="M 20.964948,89 A 4.2516227,4.082284 0 0 1 16.713326,93.082284 4.2516227,4.082284 0 0 1 12.461703,89 4.2516227,4.082284 0 0 1 16.713326,84.917716 4.2516227,4.082284 0 0 1 20.964948,89 Z" />
      <path
         id="lpe_path-effect14"
         style="display:inline;fill:#ffffff;fill-opacity:1;stroke-width:4.96249"
         class="powerclip"
         d="M 17.476467,82 H 107.47647 V 96 H 17.476467 Z m 3.488481,7 A 4.2516227,4.082284 0 0 0 16.713326,84.917716 4.2516227,4.082284 0 0 0 12.461703,89 4.2516227,4.082284 0 0 0 16.713326,93.082284 4.2516227,4.082284 0 0 0 20.964948,89 Z" />
    </clipPath>
    <clipPath
       clipPathUnits="userSpaceOnUse"
       id="clipPath13">
      <ellipse
         style="display:none;fill:#ffffff;fill-opacity:1;stroke-width:4.96249"
         id="ellipse13"
         ry="4.082284"
         rx="4.2516227"
         cy="88.736145"
         cx="16.781862"
         d="m 21.033485,88.736145 a 4.2516227,4.082284 0 0 1 -4.251623,4.082284 4.2516227,4.082284 0 0 1 -4.251622,-4.082284 4.2516227,4.082284 0 0 1 4.251622,-4.082284 4.2516227,4.082284 0 0 1 4.251623,4.082284 z" />
      <path
         id="lpe_path-effect15"
         style="display:inline;fill:#ffffff;fill-opacity:1;stroke-width:4.96249"
         class="powerclip"
         d="M 3.4951878,75.779522 H 30.068537 V 101.69277 H 3.4951878 Z M 21.033485,88.736145 a 4.2516227,4.082284 0 0 0 -4.251623,-4.082284 4.2516227,4.082284 0 0 0 -4.251622,4.082284 4.2516227,4.082284 0 0 0 4.251622,4.082284 4.2516227,4.082284 0 0 0 4.251623,-4.082284 z" />
    </clipPath>
    <clipPath
       clipPathUnits="userSpaceOnUse"
       id="clipPath14">
      <ellipse
         style="display:none;fill:#ffffff;fill-opacity:1;stroke-width:4.96249"
         id="ellipse14"
         ry="4.082284"
         rx="4.2516227"
         cy="89"
         cx="16.713326"
         d="M 20.964948,89 A 4.2516227,4.082284 0 0 1 16.713326,93.082284 4.2516227,4.082284 0 0 1 12.461703,89 4.2516227,4.082284 0 0 1 16.713326,84.917716 4.2516227,4.082284 0 0 1 20.964948,89 Z" />
      <path
         id="lpe_path-effect16"
         style="display:inline;fill:#ffffff;fill-opacity:1;stroke-width:4.96249"
         class="powerclip"
         d="M 95.839555,76.000003 H 122.50325 V 102 H 95.839555 Z M 20.964948,89 A 4.2516227,4.082284 0 0 0 16.713326,84.917716 4.2516227,4.082284 0 0 0 12.461703,89 4.2516227,4.082284 0 0 0 16.713326,93.082284 4.2516227,4.082284 0 0 0 20.964948,89 Z" />
    </clipPath>
    <clipPath
       clipPathUnits="userSpaceOnUse"
       id="clipPath14-4">
      <ellipse
         style="display:none;fill:#ffffff;fill-opacity:1;stroke-width:4.96249"
         id="ellipse14-8"
         ry="4.082284"
         rx="4.2516227"
         cy="89"
         cx="16.713326" />
      <path
         id="lpe_path-effect16-8"
         style="display:inline;fill:#ffffff;fill-opacity:1;stroke-width:4.96249"
         class="powerclip"
         d="M 95.839555,76.000003 H 122.50325 V 102 H 95.839555 Z M 20.964948,89 A 4.2516227,4.082284 0 0 0 16.713326,84.917716 4.2516227,4.082284 0 0 0 12.461703,89 4.2516227,4.082284 0 0 0 16.713326,93.082284 4.2516227,4.082284 0 0 0 20.964948,89 Z" />
    </clipPath>
    <inkscape:path-effect
       effect="powerclip"
       message=""
       id="path-effect16-2"
       is_visible="true"
       lpeversion="1"
       inverse="true"
       flatten="false"
       hide_clip="false" />
    <clipPath
       clipPathUnits="userSpaceOnUse"
       id="clipath_lpe_path-effect16-2">
      <ellipse
         style="display:none;fill:#ffffff;fill-opacity:1;stroke-width:4.96249"
         id="ellipse5"
         ry="4.082284"
         rx="4.2516227"
         cy="89"
         cx="16.713326"
         d="M 20.964948,89 A 4.2516227,4.082284 0 0 1 16.713326,93.082284 4.2516227,4.082284 0 0 1 12.461703,89 4.2516227,4.082284 0 0 1 16.713326,84.917716 4.2516227,4.082284 0 0 1 20.964948,89 Z" />
      <path
         style="display:none;fill:#ffffff;fill-opacity:1;stroke-width:4.96249"
         class="powerclip"
         d="M 94.154229,76.515804 H 120.81792 V 102.5158 H 94.154229 Z M 20.964948,89 A 4.2516227,4.082284 0 0 0 16.713326,84.917716 4.2516227,4.082284 0 0 0 12.461703,89 4.2516227,4.082284 0 0 0 16.713326,93.082284 4.2516227,4.082284 0 0 0 20.964948,89 Z"
         id="path1" />
      <path
         style="display:none;fill:#ffffff;fill-opacity:1;stroke-width:4.96249"
         class="powerclip"
         d="M 94.154229,76.515804 H 120.81792 V 102.5158 H 94.154229 Z M 20.964948,89 A 4.2516227,4.082284 0 0 0 16.713326,84.917716 4.2516227,4.082284 0 0 0 12.461703,89 4.2516227,4.082284 0 0 0 16.713326,93.082284 4.2516227,4.082284 0 0 0 20.964948,89 Z"
         id="path2" />
      <path
         style="display:none;fill:#ffffff;fill-opacity:1;stroke-width:4.96249"
         class="powerclip"
         d="M 94.154229,76.515804 H 120.81792 V 102.5158 H 94.154229 Z M 20.964948,89 A 4.2516227,4.082284 0 0 0 16.713326,84.917716 4.2516227,4.082284 0 0 0 12.461703,89 4.2516227,4.082284 0 0 0 16.713326,93.082284 4.2516227,4.082284 0 0 0 20.964948,89 Z"
         id="path3" />
      <path
         style="display:none;fill:#ffffff;fill-opacity:1;stroke-width:4.96249"
         class="powerclip"
         d="M 94.154229,76.515804 H 120.81792 V 102.5158 H 94.154229 Z M 20.964948,89 A 4.2516227,4.082284 0 0 0 16.713326,84.917716 4.2516227,4.082284 0 0 0 12.461703,89 4.2516227,4.082284 0 0 0 16.713326,93.082284 4.2516227,4.082284 0 0 0 20.964948,89 Z"
         id="path4" />
      <path
         style="display:none;fill:#ffffff;fill-opacity:1;stroke-width:4.96249"
         class="powerclip"
         d="M 94.154229,76.515804 H 120.81792 V 102.5158 H 94.154229 Z M 20.964948,89 A 4.2516227,4.082284 0 0 0 16.713326,84.917716 4.2516227,4.082284 0 0 0 12.461703,89 4.2516227,4.082284 0 0 0 16.713326,93.082284 4.2516227,4.082284 0 0 0 20.964948,89 Z"
         id="path5" />
      <path
         style="display:none;fill:#ffffff;fill-opacity:1;stroke-width:4.96249"
         class="powerclip"
         d="M 94.154229,76.515804 H 120.81792 V 102.5158 H 94.154229 Z M 20.964948,89 A 4.2516227,4.082284 0 0 0 16.713326,84.917716 4.2516227,4.082284 0 0 0 12.461703,89 4.2516227,4.082284 0 0 0 16.713326,93.082284 4.2516227,4.082284 0 0 0 20.964948,89 Z"
         id="path6" />
      <path
         style="display:none;fill:#ffffff;fill-opacity:1;stroke-width:4.96249"
         class="powerclip"
         d="M 94.154229,76.515804 H 120.81792 V 102.5158 H 94.154229 Z M 20.964948,89 A 4.2516227,4.082284 0 0 0 16.713326,84.917716 4.2516227,4.082284 0 0 0 12.461703,89 4.2516227,4.082284 0 0 0 16.713326,93.082284 4.2516227,4.082284 0 0 0 20.964948,89 Z"
         id="path7" />
      <path
         style="display:none;fill:#ffffff;fill-opacity:1;stroke-width:4.96249"
         class="powerclip"
         d="M 94.154229,76.515804 H 120.81792 V 102.5158 H 94.154229 Z M 20.964948,89 A 4.2516227,4.082284 0 0 0 16.713326,84.917716 4.2516227,4.082284 0 0 0 12.461703,89 4.2516227,4.082284 0 0 0 16.713326,93.082284 4.2516227,4.082284 0 0 0 20.964948,89 Z"
         id="path8" />
      <path
         style="display:none;fill:#ffffff;fill-opacity:1;stroke-width:4.96249"
         class="powerclip"
         d="M 94.154229,76.515804 H 120.81792 V 102.5158 H 94.154229 Z M 20.964948,89 A 4.2516227,4.082284 0 0 0 16.713326,84.917716 4.2516227,4.082284 0 0 0 12.461703,89 4.2516227,4.082284 0 0 0 16.713326,93.082284 4.2516227,4.082284 0 0 0 20.964948,89 Z"
         id="path9" />
      <path
         style="display:none;fill:#ffffff;fill-opacity:1;stroke-width:4.96249"
         class="powerclip"
         d="M 94.154229,76.515804 H 120.81792 V 102.5158 H 94.154229 Z M 20.964948,89 A 4.2516227,4.082284 0 0 0 16.713326,84.917716 4.2516227,4.082284 0 0 0 12.461703,89 4.2516227,4.082284 0 0 0 16.713326,93.082284 4.2516227,4.082284 0 0 0 20.964948,89 Z"
         id="path10" />
      <path
         style="display:none;fill:#ffffff;fill-opacity:1;stroke-width:4.96249"
         class="powerclip"
         d="M 94.154229,76.515804 H 120.81792 V 102.5158 H 94.154229 Z M 20.964948,89 A 4.2516227,4.082284 0 0 0 16.713326,84.917716 4.2516227,4.082284 0 0 0 12.461703,89 4.2516227,4.082284 0 0 0 16.713326,93.082284 4.2516227,4.082284 0 0 0 20.964948,89 Z"
         id="path11" />
      <path
         style="display:none;fill:#ffffff;fill-opacity:1;stroke-width:4.96249"
         class="powerclip"
         d="M 94.154229,76.515804 H 120.81792 V 102.5158 H 94.154229 Z M 20.964948,89 A 4.2516227,4.082284 0 0 0 16.713326,84.917716 4.2516227,4.082284 0 0 0 12.461703,89 4.2516227,4.082284 0 0 0 16.713326,93.082284 4.2516227,4.082284 0 0 0 20.964948,89 Z"
         id="path12" />
      <path
         style="display:none;fill:#ffffff;fill-opacity:1;stroke-width:4.96249"
         class="powerclip"
         d="M 94.154229,76.515804 H 120.81792 V 102.5158 H 94.154229 Z M 20.964948,89 A 4.2516227,4.082284 0 0 0 16.713326,84.917716 4.2516227,4.082284 0 0 0 12.461703,89 4.2516227,4.082284 0 0 0 16.713326,93.082284 4.2516227,4.082284 0 0 0 20.964948,89 Z"
         id="path13" />
      <path
         style="display:none;fill:#ffffff;fill-opacity:1;stroke-width:4.96249"
         class="powerclip"
         d="M 94.154229,76.515804 H 120.81792 V 102.5158 H 94.154229 Z M 20.964948,89 A 4.2516227,4.082284 0 0 0 16.713326,84.917716 4.2516227,4.082284 0 0 0 12.461703,89 4.2516227,4.082284 0 0 0 16.713326,93.082284 4.2516227,4.082284 0 0 0 20.964948,89 Z"
         id="path14" />
      <path
         style="display:none;fill:#ffffff;fill-opacity:1;stroke-width:4.96249"
         class="powerclip"
         d="M 94.154229,76.515804 H 120.81792 V 102.5158 H 94.154229 Z M 20.964948,89 A 4.2516227,4.082284 0 0 0 16.713326,84.917716 4.2516227,4.082284 0 0 0 12.461703,89 4.2516227,4.082284 0 0 0 16.713326,93.082284 4.2516227,4.082284 0 0 0 20.964948,89 Z"
         id="path15" />
      <path
         style="display:none;fill:#ffffff;fill-opacity:1;stroke-width:4.96249"
         class="powerclip"
         d="M 94.154229,76.515804 H 120.81792 V 102.5158 H 94.154229 Z M 20.964948,89 A 4.2516227,4.082284 0 0 0 16.713326,84.917716 4.2516227,4.082284 0 0 0 12.461703,89 4.2516227,4.082284 0 0 0 16.713326,93.082284 4.2516227,4.082284 0 0 0 20.964948,89 Z"
         id="path16" />
      <path
         style="display:none;fill:#ffffff;fill-opacity:1;stroke-width:4.96249"
         class="powerclip"
         d="M 94.154229,76.515804 H 120.81792 V 102.5158 H 94.154229 Z M 20.964948,89 A 4.2516227,4.082284 0 0 0 16.713326,84.917716 4.2516227,4.082284 0 0 0 12.461703,89 4.2516227,4.082284 0 0 0 16.713326,93.082284 4.2516227,4.082284 0 0 0 20.964948,89 Z"
         id="path17" />
      <path
         style="display:none;fill:#ffffff;fill-opacity:1;stroke-width:4.96249"
         class="powerclip"
         d="M 94.154229,76.515804 H 120.81792 V 102.5158 H 94.154229 Z M 20.964948,89 A 4.2516227,4.082284 0 0 0 16.713326,84.917716 4.2516227,4.082284 0 0 0 12.461703,89 4.2516227,4.082284 0 0 0 16.713326,93.082284 4.2516227,4.082284 0 0 0 20.964948,89 Z"
         id="path18" />
      <path
         style="display:none;fill:#ffffff;fill-opacity:1;stroke-width:4.96249"
         class="powerclip"
         id="lpe_path-effect16-2"
         d="M 94.154229,76.515804 H 120.81792 V 102.5158 H 94.154229 Z M 20.964948,89 A 4.2516227,4.082284 0 0 0 16.713326,84.917716 4.2516227,4.082284 0 0 0 12.461703,89 4.2516227,4.082284 0 0 0 16.713326,93.082284 4.2516227,4.082284 0 0 0 20.964948,89 Z M 94.154229,76.515804 V 102.5158 H 120.81792 V 76.515804 Z M 20.964948,89 A 4.2516227,4.082284 0 0 0 16.713326,84.917716 4.2516227,4.082284 0 0 0 12.461703,89 4.2516227,4.082284 0 0 0 16.713326,93.082284 4.2516227,4.082284 0 0 0 20.964948,89 Z M 94.154229,76.515804 V 102.5158 H 120.81792 V 76.515804 Z M 20.964948,89 A 4.2516227,4.082284 0 0 0 16.713326,84.917716 4.2516227,4.082284 0 0 0 12.461703,89 4.2516227,4.082284 0 0 0 16.713326,93.082284 4.2516227,4.082284 0 0 0 20.964948,89 Z M 94.154229,76.515804 V 102.5158 H 120.81792 V 76.515804 Z M 20.964948,89 A 4.2516227,4.082284 0 0 0 16.713326,84.917716 4.2516227,4.082284 0 0 0 12.461703,89 4.2516227,4.082284 0 0 0 16.713326,93.082284 4.2516227,4.082284 0 0 0 20.964948,89 Z M 94.154229,76.515804 V 102.5158 H 120.81792 V 76.515804 Z M 20.964948,89 A 4.2516227,4.082284 0 0 0 16.713326,84.917716 4.2516227,4.082284 0 0 0 12.461703,89 4.2516227,4.082284 0 0 0 16.713326,93.082284 4.2516227,4.082284 0 0 0 20.964948,89 Z M 94.154229,76.515804 V 102.5158 H 120.81792 V 76.515804 Z M 20.964948,89 A 4.2516227,4.082284 0 0 0 16.713326,84.917716 4.2516227,4.082284 0 0 0 12.461703,89 4.2516227,4.082284 0 0 0 16.713326,93.082284 4.2516227,4.082284 0 0 0 20.964948,89 Z M 94.154229,76.515804 V 102.5158 H 120.81792 V 76.515804 Z M 20.964948,89 A 4.2516227,4.082284 0 0 0 16.713326,84.917716 4.2516227,4.082284 0 0 0 12.461703,89 4.2516227,4.082284 0 0 0 16.713326,93.082284 4.2516227,4.082284 0 0 0 20.964948,89 Z M 94.154229,76.515804 V 102.5158 H 120.81792 V 76.515804 Z M 20.964948,89 A 4.2516227,4.082284 0 0 0 16.713326,84.917716 4.2516227,4.082284 0 0 0 12.461703,89 4.2516227,4.082284 0 0 0 16.713326,93.082284 4.2516227,4.082284 0 0 0 20.964948,89 Z M 94.154229,76.515804 V 102.5158 H 120.81792 V 76.515804 Z M 20.964948,89 A 4.2516227,4.082284 0 0 0 16.713326,84.917716 4.2516227,4.082284 0 0 0 12.461703,89 4.2516227,4.082284 0 0 0 16.713326,93.082284 4.2516227,4.082284 0 0 0 20.964948,89 Z M 94.154229,76.515804 V 102.5158 H 120.81792 V 76.515804 Z M 20.964948,89 A 4.2516227,4.082284 0 0 0 16.713326,84.917716 4.2516227,4.082284 0 0 0 12.461703,89 4.2516227,4.082284 0 0 0 16.713326,93.082284 4.2516227,4.082284 0 0 0 20.964948,89 Z M 94.154229,76.515804 V 102.5158 H 120.81792 V 76.515804 Z M 20.964948,89 A 4.2516227,4.082284 0 0 0 16.713326,84.917716 4.2516227,4.082284 0 0 0 12.461703,89 4.2516227,4.082284 0 0 0 16.713326,93.082284 4.2516227,4.082284 0 0 0 20.964948,89 Z M 94.154229,76.515804 V 102.5158 H 120.81792 V 76.515804 Z M 20.964948,89 A 4.2516227,4.082284 0 0 0 16.713326,84.917716 4.2516227,4.082284 0 0 0 12.461703,89 4.2516227,4.082284 0 0 0 16.713326,93.082284 4.2516227,4.082284 0 0 0 20.964948,89 Z M 94.154229,76.515804 V 102.5158 H 120.81792 V 76.515804 Z M 20.964948,89 A 4.2516227,4.082284 0 0 0 16.713326,84.917716 4.2516227,4.082284 0 0 0 12.461703,89 4.2516227,4.082284 0 0 0 16.713326,93.082284 4.2516227,4.082284 0 0 0 20.964948,89 Z M 94.154229,76.515804 V 102.5158 H 120.81792 V 76.515804 Z M 20.964948,89 A 4.2516227,4.082284 0 0 0 16.713326,84.917716 4.2516227,4.082284 0 0 0 12.461703,89 4.2516227,4.082284 0 0 0 16.713326,93.082284 4.2516227,4.082284 0 0 0 20.964948,89 Z M 94.154229,76.515804 V 102.5158 H 120.81792 V 76.515804 Z M 20.964948,89 A 4.2516227,4.082284 0 0 0 16.713326,84.917716 4.2516227,4.082284 0 0 0 12.461703,89 4.2516227,4.082284 0 0 0 16.713326,93.082284 4.2516227,4.082284 0 0 0 20.964948,89 Z M 94.154229,76.515804 V 102.5158 H 120.81792 V 76.515804 Z M 20.964948,89 A 4.2516227,4.082284 0 0 0 16.713326,84.917716 4.2516227,4.082284 0 0 0 12.461703,89 4.2516227,4.082284 0 0 0 16.713326,93.082284 4.2516227,4.082284 0 0 0 20.964948,89 Z M 94.154229,76.515804 V 102.5158 H 120.81792 V 76.515804 Z M 20.964948,89 A 4.2516227,4.082284 0 0 0 16.713326,84.917716 4.2516227,4.082284 0 0 0 12.461703,89 4.2516227,4.082284 0 0 0 16.713326,93.082284 4.2516227,4.082284 0 0 0 20.964948,89 Z M 94.154229,76.515804 V 102.5158 H 120.81792 V 76.515804 Z M 20.964948,89 A 4.2516227,4.082284 0 0 0 16.713326,84.917716 4.2516227,4.082284 0 0 0 12.461703,89 4.2516227,4.082284 0 0 0 16.713326,93.082284 4.2516227,4.082284 0 0 0 20.964948,89 Z M 94.154229,76.515804 V 102.5158 H 120.81792 V 76.515804 Z M 20.964948,89 A 4.2516227,4.082284 0 0 0 16.713326,84.917716 4.2516227,4.082284 0 0 0 12.461703,89 4.2516227,4.082284 0 0 0 16.713326,93.082284 4.2516227,4.082284 0 0 0 20.964948,89 Z" />
    </clipPath>
    <clipPath
       clipPathUnits="userSpaceOnUse"
       id="clipPath29">
      <path
         style="display:none;fill:#333333;stroke-width:2.16505"
         id="path29"
         sodipodi:type="arc"
         sodipodi:cx="80.168442"
         sodipodi:cy="235.51599"
         sodipodi:rx="0.84562445"
         sodipodi:ry="0.79149538"
         sodipodi:start="4.390662"
         sodipodi:end="2.1698336"
         sodipodi:arc-type="arc"
         clip-path="none"
         d="m 79.901051,234.76511 a 0.84562445,0.79149538 0 0 1 0.993383,0.34503 0.84562445,0.79149538 0 0 1 -0.146445,0.98223 0.84562445,0.79149538 0 0 1 -1.056351,0.0773"
         sodipodi:open="true" />
      <path
         id="lpe_path-effect29"
         style="display:inline;fill:#333333;stroke-width:2.16505"
         class="powerclip"
         d="m 75.261062,226.5469 h 18.828137 v 17.944 H 75.261062 Z m 4.430576,9.62277 a 0.84562445,0.79149538 0 0 0 1.056351,-0.0773 0.84562445,0.79149538 0 0 0 0.146445,-0.98223 0.84562445,0.79149538 0 0 0 -0.993383,-0.34503" />
    </clipPath>
  </defs>
  <sodipodi:namedview
     id="namedview1"
     pagecolor="#919191"
     bordercolor="#eeeeee"
     borderopacity="1"
     inkscape:showpageshadow="0"
     inkscape:pageopacity="0"
     inkscape:pagecheckerboard="0"
     inkscape:deskcolor="#505050"
     showgrid="true"
     inkscape:zoom="1.4142136"
     inkscape:cx="392.44426"
     inkscape:cy="9.5459415"
     inkscape:window-width="1920"
     inkscape:window-height="991"
     inkscape:window-x="-9"
     inkscape:window-y="-9"
     inkscape:window-maximized="1"
     inkscape:current-layer="svg1">
    <inkscape:grid
       id="grid3"
       units="px"
       originx="-45.289274"
       originy="3.0203701"
       spacingx="0.99999998"
       spacingy="0.99999997"
       empcolor="#0099e5"
       empopacity="0.30196078"
       color="#0099e5"
       opacity="0.14901961"
       empspacing="5"
       enabled="true"
       visible="true" />
  </sodipodi:namedview>
  <g
     inkscape:groupmode="layer"
     inkscape:label="Image"
     id="g1"
     sodipodi:insensitive="true"
     style="display:none;fill:#000000;fill-opacity:1"
     transform="translate(-45.289281,3.0203699)">
    <image
       width="243.84"
       height="163.52"
       preserveAspectRatio="none"
       id="image1"
       x="5.7115655"
       y="9.0961971"
       style="display:inline" />
    <path
       style="display:inline;fill:#000000;fill-opacity:1;stroke-width:9.72492"
       id="path3-1-2-6-6-5"
       clip-path="url(#clipath_lpe_path-effect16-2)"
       transform="matrix(0.96936374,0,0,0.96936374,42.643197,-11.773376)"
       d="m 115.81792,89.5158 a 8.3318472,7.9999967 0 0 1 -8.33184,7.999997 8.3318472,7.9999967 0 0 1 -8.331851,-7.999997 8.3318472,7.9999967 0 0 1 8.331851,-7.999996 8.3318472,7.9999967 0 0 1 8.33184,7.999996 z"
       sodipodi:type="arc"
       sodipodi:ry="7.9999967"
       sodipodi:rx="8.3318472"
       sodipodi:cy="89.5158"
       sodipodi:cx="107.48608"
       inkscape:path-effect="#path-effect16-2" />
  </g>
  <path
     d="m 80.261062,239.4909 v -7.944 h 0.9 v 7.944 z m 2.180137,0 v -7.944 h 3.804 c 0.816,0 1.464,0.224 1.944,0.672 0.488,0.448 0.732,1.052 0.732,1.812 0,0.512 -0.1,0.92 -0.3,1.224 -0.192,0.304 -0.436,0.536 -0.732,0.696 -0.296,0.152 -0.592,0.264 -0.888,0.336 l 2.088,3.204 h -1.068 l -1.92,-3.048 h -2.76 v 3.048 z m 0.9,-3.9 h 2.748 c 0.288,0 0.58,-0.044 0.876,-0.132 0.296,-0.088 0.544,-0.244 0.744,-0.468 0.208,-0.232 0.312,-0.552 0.312,-0.96 0,-0.504 -0.172,-0.9 -0.516,-1.188 -0.344,-0.296 -0.8,-0.444 -1.368,-0.444 h -2.796 z"
     id="text17"
     clip-path="url(#clipPath29)"
     style="font-size:12px;font-family:Questrial;-inkscape-font-specification:'Questrial, Normal';white-space:pre;fill:#4eb1f2;fill-opacity:1"
     transform="matrix(13.846923,0,0,13.846923,-1011.3755,-3183.1916)"
     aria-label="IR"
     inkscape:path-effect="#path-effect29"
     inkscape:original-d="m 80.261062,239.4909 v -7.944 h 0.9 v 7.944 z m 2.180137,0 v -7.944 h 3.804 c 0.816,0 1.464,0.224 1.944,0.672 0.488,0.448 0.732,1.052 0.732,1.812 0,0.512 -0.1,0.92 -0.3,1.224 -0.192,0.304 -0.436,0.536 -0.732,0.696 -0.296,0.152 -0.592,0.264 -0.888,0.336 l 2.088,3.204 h -1.068 l -1.92,-3.048 h -2.76 v 3.048 z m 0.9,-3.9 h 2.748 c 0.288,0 0.58,-0.044 0.876,-0.132 0.296,-0.088 0.544,-0.244 0.744,-0.468 0.208,-0.232 0.312,-0.552 0.312,-0.96 0,-0.504 -0.172,-0.9 -0.516,-1.188 -0.344,-0.296 -0.8,-0.444 -1.368,-0.444 h -2.796 z"
     sodipodi:nodetypes="cccccccscsccccccccccsscscscc" />
  <g
     id="g25"
     transform="translate(-9.6826906,-9.4796291)"
     style="fill:#4eb1f2;fill-opacity:1">
    <g
       id="g24"
       style="fill:#4eb1f2;fill-opacity:1">
      <g
         id="g17"
         transform="translate(-0.7469865,-3.4723)"
         inkscape:path-effect="#path-effect24"
         style="fill:#4eb1f2;fill-opacity:1">
        <path
           style="display:inline;fill:#4eb1f2;fill-opacity:1;stroke-width:6.54129"
           id="path3-1-2-6-1-9"
           sodipodi:type="arc"
           sodipodi:cx="85.710022"
           sodipodi:cy="77.857918"
           sodipodi:rx="5.6042585"
           sodipodi:ry="5.3810453"
           d="m 91.314281,77.857918 c 0,2.971869 -2.509113,5.381045 -5.604259,5.381045 -3.095147,0 -5.604259,-2.409176 -5.604259,-5.381045 0,-2.971869 2.509112,-5.381046 5.604259,-5.381046 3.095146,0 5.604259,2.409177 5.604259,5.381046 z m 0.0057,26.216952 c -0.0013,-2.97187 -2.511471,-5.379942 -5.606618,-5.378585 -3.095146,0.0014 -5.603201,2.411635 -5.601898,5.383505 0.0013,2.97187 2.511472,5.37994 5.606618,5.37858 3.095146,-0.001 5.603202,-2.41163 5.601898,-5.3835 z" />
        <path
           style="display:inline;fill:#4eb1f2;fill-opacity:1;stroke-width:5.65406"
           id="path3-1-2-6-1"
           sodipodi:type="arc"
           sodipodi:cx="90.901833"
           sodipodi:cy="62.740334"
           sodipodi:rx="4.8441267"
           sodipodi:ry="4.6511893"
           d="m 95.745959,62.740334 c 0,2.56878 -2.168789,4.651189 -4.844126,4.651189 -2.675338,0 -4.844127,-2.082409 -4.844127,-4.651189 0,-2.568781 2.168789,-4.65119 4.844127,-4.65119 2.675337,0 4.844126,2.082409 4.844126,4.65119 z m 0.01238,56.450176 c -0.0011,-2.56878 -2.170829,-4.65024 -4.846166,-4.64906 -2.675337,0.001 -4.843213,2.08453 -4.842086,4.65331 0.0011,2.56878 2.170829,4.65024 4.846166,4.64906 2.675337,-0.001 4.843213,-2.08453 4.842086,-4.65331 z" />
        <path
           style="display:inline;fill:#4eb1f2;fill-opacity:1;stroke-width:7.09683"
           id="path3-1-2-6"
           sodipodi:type="arc"
           sodipodi:cx="86.503296"
           sodipodi:cy="35.107292"
           sodipodi:rx="6.0802221"
           sodipodi:ry="5.8380523"
           d="m 92.583518,35.107292 c 0,3.224267 -2.722208,5.838052 -6.080222,5.838052 -3.358014,0 -6.080222,-2.613785 -6.080222,-5.838052 0,-3.224267 2.722208,-5.838052 6.080222,-5.838052 3.358014,0 6.080222,2.613785 6.080222,5.838052 z m 0.0245,111.717648 c -0.0014,-3.22427 -2.724768,-5.83686 -6.082782,-5.83539 -3.358014,0.001 -6.079075,2.61645 -6.077661,5.84072 0.0014,3.22427 2.724768,5.83686 6.082782,5.83539 3.358013,-0.001 6.079075,-2.61646 6.077661,-5.84072 z" />
        <path
           style="display:inline;fill:#4eb1f2;fill-opacity:1;stroke-width:9.69193"
           id="path3-1-2-2"
           sodipodi:type="arc"
           sodipodi:cx="63.443405"
           sodipodi:cy="72.472298"
           sodipodi:rx="8.3035803"
           sodipodi:ry="7.9728556"
           d="m 71.746985,72.472298 c 0,4.403286 -3.717639,7.972855 -8.30358,7.972855 -4.585941,0 -8.30358,-3.569569 -8.30358,-7.972855 0,-4.403287 3.717639,-7.972856 8.30358,-7.972856 4.585941,0 8.30358,3.569569 8.30358,7.972856 z m 0.0081,36.996772 c -0.0019,-4.40328 -3.721136,-7.97122 -8.307076,-7.96921 -4.58594,0.002 -8.302014,3.57321 -8.300083,7.9765 0.0019,4.40328 3.721136,7.97122 8.307076,7.96921 4.58594,-0.002 8.302014,-3.57321 8.300083,-7.9765 z" />
        <path
           style="display:inline;fill:#4eb1f2;fill-opacity:1;stroke-width:8.45226"
           id="path3-1-2"
           sodipodi:type="arc"
           sodipodi:cx="74.078873"
           sodipodi:cy="47.789608"
           sodipodi:rx="7.2414956"
           sodipodi:ry="6.953073"
           d="m 81.320368,47.789608 c 0,3.840076 -3.242128,6.953073 -7.241495,6.953073 -3.999368,0 -7.241496,-3.112997 -7.241496,-6.953073 0,-3.840076 3.242128,-6.953073 7.241496,-6.953073 3.999367,0 7.241495,3.112997 7.241495,6.953073 z m 0.01894,86.357952 c -0.0017,-3.84007 -3.245177,-6.95165 -7.244544,-6.94989 -3.999367,0.002 -7.24013,3.11617 -7.238445,6.95624 0.0017,3.84008 3.245177,6.95165 7.244544,6.9499 3.999367,-0.002 7.240129,-3.11617 7.238445,-6.95625 z" />
        <path
           style="display:inline;fill:#4eb1f2;fill-opacity:1;stroke-width:8.93584"
           id="path3-1"
           sodipodi:type="arc"
           sodipodi:cx="67.184647"
           sodipodi:cy="20.302805"
           sodipodi:rx="7.6557994"
           sodipodi:ry="7.3508759"
           d="m 74.840446,20.302805 c 0,4.059777 -3.427618,7.350876 -7.655799,7.350876 -4.228182,0 -7.6558,-3.291099 -7.6558,-7.350876 0,-4.059777 3.427618,-7.350876 7.6558,-7.350876 4.228181,0 7.655799,3.291099 7.655799,7.350876 z m 0.03099,141.334395 c -0.0018,-4.05977 -3.430842,-7.34937 -7.659022,-7.34751 -4.228181,0.002 -7.654356,3.29445 -7.652575,7.35423 0.0018,4.05978 3.430841,7.34937 7.659022,7.34752 4.228181,-0.002 7.654355,-3.29446 7.652575,-7.35424 z" />
        <path
           style="fill:#4eb1f2;fill-opacity:1;stroke-width:11.2095"
           id="path19"
           sodipodi:type="arc"
           sodipodi:cx="50.695301"
           sodipodi:cy="38.942551"
           sodipodi:rx="9.6037645"
           sodipodi:ry="9.2212553"
           d="m 60.299066,38.942551 c 0,5.092758 -4.299752,9.221255 -9.603765,9.221255 -5.304013,0 -9.603764,-4.128497 -9.603764,-9.221255 0,-5.092759 4.299751,-9.221256 9.603764,-9.221256 5.304013,0 9.603765,4.128497 9.603765,9.221256 z m 0.02282,104.061289 c -0.0022,-5.09276 -4.303796,-9.21937 -9.607808,-9.21705 -5.304012,0.002 -9.601953,4.13271 -9.59972,9.22547 0.0022,5.09276 4.303796,9.21937 9.607808,9.21704 5.304012,-0.002 9.601953,-4.1327 9.59972,-9.22546 z" />
        <path
           style="fill:#4eb1f2;fill-opacity:1;stroke-width:12.5223"
           id="path3-8"
           sodipodi:type="arc"
           sodipodi:cx="37.464867"
           sodipodi:cy="68.441818"
           sodipodi:rx="10.728558"
           sodipodi:ry="10.30125"
           d="m 48.193424,68.441818 c 0,5.689224 -4.803339,10.301251 -10.728557,10.301251 -5.925219,0 -10.728558,-4.612027 -10.728558,-10.301251 0,-5.689223 4.803339,-10.30125 10.728558,-10.30125 5.925218,0 10.728557,4.612027 10.728557,10.30125 z m 0.0099,45.068062 c -0.0025,-5.68922 -4.807855,-10.29914 -10.733074,-10.29654 -5.925218,0.003 -10.726534,4.61673 -10.724039,10.30595 0.0025,5.68922 4.807856,10.29914 10.733075,10.29655 5.925218,-0.003 10.726534,-4.61674 10.724038,-10.30596 z" />
      </g>
    </g>
    <g
       id="g16"
       style="fill:#4eb1f2;fill-opacity:1">
      <path
         style="display:inline;fill:#4eb1f2;fill-opacity:1;stroke-width:9.72492"
         id="path3-1-2-6-6"
         clip-path="url(#clipPath14)"
         transform="matrix(0.96936374,0,0,0.96936374,1.6432027,1.226624)"
         d="M 117.50325,89 A 8.3318472,7.9999967 0 0 1 109.1714,96.999997 8.3318472,7.9999967 0 0 1 100.83955,89 8.3318472,7.9999967 0 0 1 109.1714,81.000003 8.3318472,7.9999967 0 0 1 117.50325,89 Z"
         sodipodi:type="arc"
         sodipodi:ry="7.9999967"
         sodipodi:rx="8.3318472"
         sodipodi:cy="89"
         sodipodi:cx="109.1714"
         inkscape:path-effect="#path-effect16" />
      <path
         style="display:inline;fill:#4eb1f2;fill-opacity:1;stroke-width:9.67219"
         id="path3-1-2-4"
         clip-path="url(#clipPath13)"
         inkscape:path-effect="#path-effect6;#path-effect15"
         sodipodi:type="arc"
         sodipodi:cx="16.781862"
         sodipodi:cy="88.736145"
         sodipodi:rx="8.2866745"
         sodipodi:ry="7.9566231"
         d="m 25.068537,88.736145 a 8.2866745,7.9566231 0 0 1 -8.286675,7.956623 8.2866745,7.9566231 0 0 1 -8.2866742,-7.956623 8.2866745,7.9566231 0 0 1 8.2866742,-7.956623 8.2866745,7.9566231 0 0 1 8.286675,7.956623 z"
         transform="matrix(0.95400812,0,0,0.95400812,1.5782125,2.844994)" />
      <path
         style="fill:#4eb1f2;fill-opacity:1"
         id="rect6"
         width="80"
         height="3.9999998"
         x="22.476467"
         y="87"
         clip-path="url(#clipPath12)"
         inkscape:path-effect="#path-effect14"
         sodipodi:type="rect"
         d="m 22.476467,87 h 80.000003 v 4 H 22.476467 Z"
         transform="matrix(0.99999998,0,0,1.25,2.5235333,-23.750003)" />
    </g>
  </g>
  <text
     xml:space="preserve"
     id="text37"
     style="font-style:normal;font-variant:normal;font-weight:normal;font-stretch:normal;font-size:12px;font-family:Questrial;-inkscape-font-specification:'Questrial, Normal';font-variant-ligatures:normal;font-variant-caps:normal;font-variant-numeric:normal;font-variant-east-asian:normal;text-align:start;writing-mode:lr-tb;direction:ltr;white-space:pre;shape-inside:url(#rect38);display:inline;fill:#132540;fill-opacity:1"
     transform="matrix(13.292994,0,0,13.292994,-948.54734,-53.85838)"><tspan
       x="89.710938"
       y="14.072929"
       id="tspan19">Medical Group</tspan></text>
</svg>
